#N canvas 115 132 842 431 10;
#X obj 368 105 expr 60000 / ($f1 * 24);
#X floatatom 359 47 5 0 0 0 - - -, f 5;
#X floatatom 369 157 5 0 0 0 - - -, f 5;
#X obj 370 197 metro 20;
#X obj 280 17 bng 15 250 50 0 empty empty empty 17 7 0 10 -262144 -1
-1;
#X msg 235 55 stop;
#X obj 378 251 f 0;
#X obj 429 251 + 1, f 5;
#X floatatom 426 343 5 0 0 0 - - -, f 5;
#X floatatom 313 218 5 0 0 0 - - -, f 5;
#X obj 271 170 bng 15 250 50 0 empty empty empty 17 7 0 10 -262144
-1 -1;
#X text 448 81 input bpm => milliseconds for 24 pulses per quarter
note;
#X obj 421 301 select 96;
#X obj 545 193 f 0;
#X connect 0 0 2 0;
#X connect 1 0 0 0;
#X connect 2 0 3 1;
#X connect 3 0 6 0;
#X connect 4 0 3 0;
#X connect 4 0 1 0;
#X connect 5 0 3 0;
#X connect 6 0 7 0;
#X connect 6 0 12 0;
#X connect 7 0 6 1;
#X connect 9 0 6 0;
#X connect 10 0 9 0;
#X connect 12 0 13 0;
#X connect 12 1 8 0;
#X connect 13 0 6 1;
