#N canvas 280 56 985 595 10;
#N canvas 0 50 450 250 (subpatch) 0;
#X array seq 16 float 3;
#A 0 76 79 76 79 40 47 40 47 52 52 52 52 52 52 52 52;
#X coords 0 0 16 128 200 140 1 0 0;
#X restore 169 123 graph;
#X obj 113 65 f 0;
#X obj 173 65 + 1;
#X obj 98 104 mod 16;
#X floatatom 101 147 5 0 0 0 - - -, f 5;
#X obj 40 184 tabwrite seq;
#X floatatom 17 149 5 0 0 0 - - -, f 5;
#X floatatom 407 277 5 0 0 0 - - -, f 5;
#X obj 515 220 tabread seq;
#X obj 44 52 > 1;
#X msg 92 14 bang;
#X obj 41 95 moses 1;
#X obj 432 -5 bng 15 250 50 0 empty empty empty 17 7 0 10 -262144 -1
-1;
#X obj 468 101 /;
#X msg 485 52 15000;
#X obj 409 186 metro 250;
#X msg 402 44 stop;
#X obj 585 289 makenote;
#X floatatom 598 194 5 0 0 0 - - -, f 5;
#X obj 25 20 notein 1;
#X obj 627 322 noteout 1;
#X floatatom 526 262 5 0 0 0 - - -, f 5;
#X obj 465 142 t f f;
#X obj 731 173 f 100;
#X obj 592 26 f 120;
#X obj 466 25 t b b b b;
#X floatatom 625 -11 5 0 0 0 - - -, f 5;
#X obj 672 250 * 0.5;
#X obj 404 233 random 16;
#X obj 538 506 ctlout 74 1;
#X obj 525 398 snapshot~;
#X floatatom 627 470 5 0 0 0 - - -, f 5;
#X obj 526 354 osc~ 1;
#X obj 634 430 expr 48 + ((1 + $f1) * 32);
#X floatatom 543 324 5 0 0 0 - - -, f 5;
#X text 230 23 sequencer for jp-08;
#X text 209 44 first pd patch to sequence external midi gear;
#X connect 1 0 2 0;
#X connect 1 0 3 0;
#X connect 2 0 1 1;
#X connect 3 0 4 0;
#X connect 4 0 5 1;
#X connect 6 0 5 0;
#X connect 7 0 8 0;
#X connect 8 0 21 0;
#X connect 9 0 11 0;
#X connect 10 0 1 0;
#X connect 11 1 10 0;
#X connect 12 0 25 0;
#X connect 12 0 34 0;
#X connect 13 0 22 0;
#X connect 14 0 13 0;
#X connect 15 0 28 0;
#X connect 15 0 30 0;
#X connect 16 0 15 0;
#X connect 17 0 20 0;
#X connect 17 1 20 1;
#X connect 18 0 27 0;
#X connect 19 0 6 0;
#X connect 19 1 9 0;
#X connect 21 0 17 0;
#X connect 22 0 15 1;
#X connect 22 1 18 0;
#X connect 23 0 17 1;
#X connect 24 0 13 1;
#X connect 25 0 15 0;
#X connect 25 1 14 0;
#X connect 25 2 24 0;
#X connect 25 3 23 0;
#X connect 26 0 24 0;
#X connect 27 0 17 2;
#X connect 28 0 7 0;
#X connect 30 0 33 0;
#X connect 31 0 29 0;
#X connect 32 0 30 0;
#X connect 33 0 31 0;
#X connect 34 0 32 1;
