#N canvas 554 442 850 302 10;
#N canvas 0 50 450 250 (subpatch) 0;
#X array seq 16 float 3;
#A 0 66 95 110 107 81 111 36 9 37 97.0643 35 114 35 61 105 37;
#X coords 0 0 16 128 200 140 1 0 0;
#X restore 213 15 graph;
#X obj 14 10 bng 15 250 50 0 empty empty empty 17 7 0 10 -262144 -1
-1;
#X obj 91 58 f 0;
#X obj 138 61 + 1;
#X obj 98 104 mod 16;
#X floatatom 101 147 5 0 0 0 - - -, f 5;
#X obj 49 255 tabwrite seq;
#X obj 14 106 random 128;
#X floatatom 17 149 5 0 0 0 - - -, f 5;
#X obj 55 18 t b b;
#X obj 152 202 print index;
#X obj 35 181 print value;
#X obj 486 15 bng 15 250 50 0 empty empty empty 17 7 0 10 -262144 -1
-1;
#X obj 590 72 f 0;
#X obj 640 77 + 1;
#X obj 589 122 mod 16;
#X floatatom 589 170 5 0 0 0 - - -, f 5;
#X obj 592 198 tabread seq;
#X obj 595 236 print output;
#X connect 1 0 9 0;
#X connect 2 0 3 0;
#X connect 2 0 4 0;
#X connect 3 0 2 1;
#X connect 4 0 5 0;
#X connect 5 0 10 0;
#X connect 5 0 6 1;
#X connect 7 0 8 0;
#X connect 8 0 11 0;
#X connect 8 0 6 0;
#X connect 9 0 7 0;
#X connect 9 1 2 0;
#X connect 12 0 13 0;
#X connect 13 0 14 0;
#X connect 13 0 15 0;
#X connect 14 0 13 1;
#X connect 15 0 16 0;
#X connect 16 0 17 0;
#X connect 17 0 18 0;
