#N canvas 206 474 450 300 10;
#X obj 144 79 makenote;
#X obj 146 129 noteout;
#X floatatom 115 17 5 0 0 0 - - -, f 5;
#X floatatom 173 17 5 0 0 0 - - -, f 5;
#X floatatom 228 17 5 0 0 0 - - -, f 5;
#X obj 38 14 bng 15 250 50 0 empty empty empty 17 7 0 10 -262144 -1
-1;
#X connect 0 0 1 0;
#X connect 0 1 1 1;
#X connect 2 0 0 0;
#X connect 3 0 0 1;
#X connect 4 0 0 2;
#X connect 5 0 2 0;
